# xmcd
#
# Track frame offsets:
# 150
# 9822
# 19592
# 32030
# 46687
# 58435
# 70102
# 85217
# 98497
# 110275
# 127740
# 148172
# 159720
# 162420
# 174312
#
# Disc length: 2391 seconds
#
#
# Revision: 2
# Processed by: cddbd v1.5.2PL0 Copyright (c) Steve Scherf et al.
# Submitted via: FreeRIP 2.951 
#
DISCID=b409550f
DTITLE=The Melashenko Family Singers - Step into the Water
DYEAR=1999
DGENRE=Gospel
TTITLE0=Wonderful Savior
TTITLE1=Love Through Me
TTITLE2=A New Name in Glory
TTITLE3=The King and I
TTITLE4=Bless This House
TTITLE5=Dig a Little Deeper
TTITLE6=The Gentle Stranger
TTITLE7=Boundless Love
TTITLE8=Step Into the Water
TTITLE9=His Love
TTITLE10=It Is Well With My Soul
TTITLE11=The Nightwatch
TTITLE12=Lift Up the Trumpet
TTITLE13=I Believe the Promise
TTITLE14=To You Will I Lift Up My Soul
EXTD=
EXTT0=
EXTT1=
EXTT2=
EXTT3=
EXTT4=
EXTT5=
EXTT6=
EXTT7=
EXTT8=
EXTT9=
EXTT10=
EXTT11=
EXTT12=
EXTT13=
EXTT14=
PLAYORDER=
